<svg width="146" height="145" viewBox="0 0 146 145" fill="none" xmlns="http://www.w3.org/2000/svg">
<path d="M59.3311 145.007H26.375V131.824H59.3311V145.007ZM118.645 145.007H85.6885V131.824H118.645V145.007ZM19.7812 19.7734H19.7842V13.1816H26.376V19.7734H32.9697V6.5918H112.064V19.7734H118.65V13.1816H125.241V59.3203H118.652V72.5029H112.064V79.0947H105.464V125.232H105.462V131.823H85.6885V125.232H59.3252V131.823H39.5518V98.8682H26.377V118.642H6.60449V98.8682H13.1855V92.2764H26.3682V98.8682H26.375V85.6855H39.5518V79.0947H32.9697V72.5029H26.375V59.3203H19.7842V39.5469H19.7812V52.7305H13.1895V6.5918H19.7812V19.7734ZM118.65 98.8682H118.657V92.2764H131.839V98.8682H138.421V118.642H118.648V98.8682H105.468V85.6855H118.65V98.8682ZM59.3369 65.9121V72.5029H85.7012V65.9121H59.3369ZM46.1465 46.1387V59.3203H59.3291V46.1387H46.1465ZM85.6885 46.1387V59.3203H98.8711V46.1387H85.6885ZM131.836 52.7305H125.245V6.5918H131.836V52.7305ZM13.1855 46.1387H6.59473V6.5918H13.1855V46.1387ZM145.013 39.5469H138.431V46.1387H131.839V6.5918H138.421V0H145.013V39.5469ZM6.59082 39.5469H0V0H6.59082V39.5469ZM98.876 6.59082H46.1465V0H98.876V6.59082Z" fill="white"/>
</svg>
