<svg width="22" height="27" viewBox="0 0 22 27" fill="none" xmlns="http://www.w3.org/2000/svg">
<rect x="4" y="8" width="14" height="8" fill="#C9480D"/>
<rect x="5" y="16" width="12" height="1" fill="#C9480D"/>
<rect x="5" y="6" width="12" height="2" fill="#C9480D"/>
<rect x="7" y="5" width="8" height="1" fill="#C9480D"/>
<rect x="6" y="17" width="10" height="1" fill="#C9480D"/>
<rect x="6" y="18" width="10" height="6" fill="#C9480D"/>
<rect x="8" y="20" width="6" height="3" fill="#F36523"/>
<rect x="6" y="9" width="10" height="7" fill="#F36523"/>
<rect x="16" y="10" width="1" height="5" fill="#F36523"/>
<rect x="7" y="16" width="8" height="1" fill="#F36523"/>
<rect x="5" y="10" width="1" height="5" fill="#F36523"/>
<rect x="6" y="18" width="10" height="1" fill="#903409"/>
<rect x="7" y="12" width="2" height="2" fill="#561F06"/>
<rect x="9" y="15" width="4" height="1" fill="#561F06"/>
<rect x="13" y="12" width="2" height="2" fill="#561F06"/>
<rect x="4" y="18" width="2" height="2" fill="#C9480D"/>
<rect x="1" y="20" width="3" height="3" fill="#C9480D"/>
<rect x="3" y="21" width="1" height="1" fill="#903409"/>
<rect x="2" y="19" width="2" height="1" fill="#C9480D"/>
<rect width="2" height="2" transform="matrix(-1 0 0 1 18 18)" fill="#C9480D"/>
<rect width="3" height="3" transform="matrix(-1 0 0 1 21 20)" fill="#C9480D"/>
<rect width="1" height="1" transform="matrix(-1 0 0 1 19 21)" fill="#903409"/>
<rect width="2" height="1" transform="matrix(-1 0 0 1 20 19)" fill="#C9480D"/>
<rect x="6" y="24" width="3" height="1" fill="#C9480D"/>
<rect x="4" y="25" width="6" height="2" fill="#C9480D"/>
<rect x="13" y="24" width="3" height="1" fill="#C9480D"/>
<rect x="12" y="25" width="6" height="2" fill="#C9480D"/>
<rect width="1" height="7" transform="matrix(-1 0 0 1 4 7)" fill="#C9480D"/>
<rect width="1" height="7" transform="matrix(-1 0 0 1 3 6)" fill="#C9480D"/>
<rect width="1" height="6" transform="matrix(-1 0 0 1 2 6)" fill="#C9480D"/>
<rect width="1" height="6" transform="matrix(-1 0 0 1 1 5)" fill="#C9480D"/>
<rect x="3" y="7" width="1" height="4" fill="#C9480D"/>
<rect x="18" y="7" width="1" height="7" fill="#C9480D"/>
<rect x="19" y="6" width="1" height="7" fill="#C9480D"/>
<rect x="20" y="6" width="1" height="6" fill="#C9480D"/>
<rect x="21" y="5" width="1" height="6" fill="#C9480D"/>
<rect width="1" height="4" transform="matrix(-1 0 0 1 19 7)" fill="#C9480D"/>
<rect x="12" y="24" width="4" height="2" fill="#903409"/>
<rect x="6" y="24" width="4" height="2" fill="#903409"/>
<path d="M4 4H5V5H6V0H7V1H8V3H9V4H10V2H11V0H12V3H14V1H15V0H16V5H17V4H18V3H20V5H19V6H18V9H17V8H16V7H6V8H5V9H4V7H3V5H2V3H4V4Z" fill="#F6A179"/>
<rect x="8" y="2" width="1" height="2" fill="#F4824E"/>
<rect x="4" y="8" width="1" height="2" fill="#F4824E"/>
<rect x="17" y="7" width="1" height="3" fill="#F4824E"/>
<rect x="18" y="6" width="1" height="3" fill="#F4824E"/>
<rect x="3" y="7" width="1" height="2" fill="#F4824E"/>
<rect x="3" y="5" width="1" height="2" fill="#F4824E"/>
</svg>
