<svg width="195" height="195" viewBox="0 0 195 195" fill="none" xmlns="http://www.w3.org/2000/svg">
<path d="M165.449 74.625H157.427V66.6026H165.449V74.625Z" fill="#8CE45A"/>
<path d="M165.449 54.4746H157.427V46.4522H165.449V54.4746Z" fill="#8CE45A"/>
<path d="M165.449 134.701H157.427V126.679H165.449V134.701Z" fill="#8CE45A"/>
<path d="M173.471 74.625H165.448V66.6026H173.471V74.625Z" fill="#8CE45A"/>
<path d="M165.449 86.5645H157.427V94.5869H165.449V86.5645Z" fill="#8CE45A"/>
<path d="M173.471 86.5645H165.448V94.5869H173.471V86.5645Z" fill="#8CE45A"/>
<path d="M148.672 76.0898H140.649V84.1123H148.672V76.0898Z" fill="#E8C24A"/>
<path d="M148.672 84.1113H140.649V92.1337H148.672V84.1113Z" fill="#E8C24A"/>
<path d="M151.575 84.1113H143.553V92.1337H151.575V84.1113Z" fill="#E8C24A"/>
<path d="M148.672 92.1328H140.649V100.155H148.672V92.1328Z" fill="#E8C24A"/>
<path d="M151.575 92.1328H143.553V100.155H151.575V92.1328Z" fill="#E8C24A"/>
<path d="M148.672 100.156H140.649V108.179H148.672V100.156Z" fill="#E8C24A"/>
<path d="M165.449 116.246H157.427V108.224H165.449V116.246Z" fill="#8CE45A"/>
<path d="M173.471 116.246H165.448V108.224H173.471V116.246Z" fill="#8CE45A"/>
<path d="M132.626 44H124.604V52.0224H132.626V44Z" fill="#D23C34"/>
<path d="M140.649 44H132.627V52.0224H140.649V44Z" fill="#D23C34"/>
<path d="M116.581 52.0215H108.559V60.0439H116.581V52.0215Z" fill="#D23C34"/>
<path d="M124.604 52.0215H116.582V60.0439H124.604V52.0215Z" fill="#D23C34"/>
<path d="M132.626 52.0215H124.604V60.0439H132.626V52.0215Z" fill="#D23C34"/>
<path d="M140.649 52.0215H132.627V60.0439H140.649V52.0215Z" fill="#D23C34"/>
<path d="M100.536 60.043H92.5137V68.0654H100.536V60.043Z" fill="#D23C34"/>
<path d="M108.56 60.043H100.537V68.0654H108.56V60.043Z" fill="#D23C34"/>
<path d="M116.581 60.043H108.559V68.0654H116.581V60.043Z" fill="#D23C34"/>
<path d="M124.604 60.043H116.582V68.0654H124.604V60.043Z" fill="#D23C34"/>
<path d="M84.4921 68.0664H76.4697V76.0888H84.4921V68.0664Z" fill="#D23C34"/>
<path d="M92.5146 68.0664H84.4922V76.0888H92.5146V68.0664Z" fill="#D23C34"/>
<path d="M100.536 68.0664H92.5137V76.0888H100.536V68.0664Z" fill="#D23C34"/>
<path d="M108.56 68.0664H100.537V76.0888H108.56V68.0664Z" fill="#D23C34"/>
<path d="M116.581 68.0664H108.559V76.0888H116.581V68.0664Z" fill="#D23C34"/>
<path d="M124.604 68.0664H116.582V76.0888H124.604V68.0664Z" fill="#D23C34"/>
<path d="M68.4472 76.0898H60.4248V84.1123H68.4472V76.0898Z" fill="#D23C34"/>
<path d="M76.4697 76.0898H68.4473V84.1123H76.4697V76.0898Z" fill="#D23C34"/>
<path d="M84.4921 76.0898H76.4697V84.1123H84.4921V76.0898Z" fill="#D23C34"/>
<path d="M92.5146 76.0898H84.4922V84.1123H92.5146V76.0898Z" fill="#D23C34"/>
<path d="M100.536 76.0898H92.5137V84.1123H100.536V76.0898Z" fill="#D23C34"/>
<path d="M108.56 76.0898H100.537V84.1123H108.56V76.0898Z" fill="#D23C34"/>
<path d="M116.581 76.0898H108.559V84.1123H116.581V76.0898Z" fill="#D23C34"/>
<path d="M124.604 76.0898H116.582V84.1123H124.604V76.0898Z" fill="#D23C34"/>
<path d="M68.4472 84.1113H60.4248V92.1337H68.4472V84.1113Z" fill="#D23C34"/>
<path d="M76.4697 84.1113H68.4473V92.1337H76.4697V84.1113Z" fill="#D23C34"/>
<path d="M84.4921 84.1113H76.4697V92.1337H84.4921V84.1113Z" fill="#D23C34"/>
<path d="M68.4472 92.1328H60.4248V100.155H68.4472V92.1328Z" fill="#D23C34"/>
<path d="M76.4697 92.1328H68.4473V100.155H76.4697V92.1328Z" fill="#D23C34"/>
<path d="M84.4921 92.1328H76.4697V100.155H84.4921V92.1328Z" fill="#D23C34"/>
<path d="M68.4472 100.156H60.4248V108.179H68.4472V100.156Z" fill="#D23C34"/>
<path d="M76.4697 100.156H68.4473V108.179H76.4697V100.156Z" fill="#D23C34"/>
<path d="M84.4921 100.156H76.4697V108.179H84.4921V100.156Z" fill="#D23C34"/>
<path d="M92.5146 100.156H84.4922V108.179H92.5146V100.156Z" fill="#D23C34"/>
<path d="M100.536 100.156H92.5137V108.179H100.536V100.156Z" fill="#D23C34"/>
<path d="M108.56 100.156H100.537V108.179H108.56V100.156Z" fill="#D23C34"/>
<path d="M116.581 100.156H108.559V108.179H116.581V100.156Z" fill="#D23C34"/>
<path d="M124.604 100.156H116.582V108.179H124.604V100.156Z" fill="#D23C34"/>
<path d="M84.4921 108.178H76.4697V116.2H84.4921V108.178Z" fill="#D23C34"/>
<path d="M92.5146 108.178H84.4922V116.2H92.5146V108.178Z" fill="#D23C34"/>
<path d="M100.536 108.178H92.5137V116.2H100.536V108.178Z" fill="#D23C34"/>
<path d="M108.56 108.178H100.537V116.2H108.56V108.178Z" fill="#D23C34"/>
<path d="M116.581 108.178H108.559V116.2H116.581V108.178Z" fill="#D23C34"/>
<path d="M124.604 108.178H116.582V116.2H124.604V108.178Z" fill="#D23C34"/>
<path d="M100.536 116.201H92.5137V124.224H100.536V116.201Z" fill="#D23C34"/>
<path d="M108.56 116.201H100.537V124.224H108.56V116.201Z" fill="#D23C34"/>
<path d="M116.581 116.201H108.559V124.224H116.581V116.201Z" fill="#D23C34"/>
<path d="M124.604 116.201H116.582V124.224H124.604V116.201Z" fill="#D23C34"/>
<path d="M116.581 124.223H108.559V132.245H116.581V124.223Z" fill="#D23C34"/>
<path d="M124.604 124.223H116.582V132.245H124.604V124.223Z" fill="#D23C34"/>
<path d="M132.626 124.223H124.604V132.245H132.626V124.223Z" fill="#D23C34"/>
<path d="M140.649 124.223H132.627V132.245H140.649V124.223Z" fill="#D23C34"/>
<path d="M132.626 132.246H124.604V140.269H132.626V132.246Z" fill="#D23C34"/>
<path d="M140.649 132.246H132.627V140.269H140.649V132.246Z" fill="#D23C34"/>
<path d="M132.626 60.043H124.604V68.0654H132.626V60.043Z" fill="#F0786E"/>
<path d="M140.649 60.043H132.627V68.0654H140.649V60.043Z" fill="#F0786E"/>
<path d="M132.626 68.0664H124.604V76.0888H132.626V68.0664Z" fill="#F0786E"/>
<path d="M140.649 68.0664H132.627V76.0888H140.649V68.0664Z" fill="#F0786E"/>
<path d="M132.626 76.0898H124.604V84.1123H132.626V76.0898Z" fill="#F0786E"/>
<path d="M140.649 76.0898H132.627V84.1123H140.649V76.0898Z" fill="#F0786E"/>
<path d="M132.626 84.1113H124.604V92.1337H132.626V84.1113Z" fill="#F0786E"/>
<path d="M140.649 84.1113H132.627V92.1337H140.649V84.1113Z" fill="#F0786E"/>
<path d="M132.626 92.1328H124.604V100.155H132.626V92.1328Z" fill="#F0786E"/>
<path d="M140.649 92.1328H132.627V100.155H140.649V92.1328Z" fill="#F0786E"/>
<path d="M132.626 100.156H124.604V108.179H132.626V100.156Z" fill="#F0786E"/>
<path d="M140.649 100.156H132.627V108.179H140.649V100.156Z" fill="#F0786E"/>
<path d="M132.626 108.178H124.604V116.2H132.626V108.178Z" fill="#F0786E"/>
<path d="M140.649 108.178H132.627V116.2H140.649V108.178Z" fill="#F0786E"/>
<path d="M132.626 116.201H124.604V124.224H132.626V116.201Z" fill="#F0786E"/>
<path d="M140.649 116.201H132.627V124.224H140.649V116.201Z" fill="#F0786E"/>
<path d="M36.3574 76.0879H28.335V84.1103H36.3574V76.0879Z" fill="#78869E"/>
<path d="M44.3808 76.0879H36.3584V84.1103H44.3808V76.0879Z" fill="#78869E"/>
<path d="M52.4023 76.0879H44.3799V84.1103H52.4023V76.0879Z" fill="#78869E"/>
<path d="M60.4257 76.0879H52.4033V84.1103H60.4257V76.0879Z" fill="#78869E"/>
<path d="M36.3574 84.1113H28.335V92.1337H36.3574V84.1113Z" fill="#78869E"/>
<path d="M44.3808 84.1113H36.3584V92.1337H44.3808V84.1113Z" fill="#78869E"/>
<path d="M52.4023 84.1113H44.3799V92.1337H52.4023V84.1113Z" fill="#78869E"/>
<path d="M60.4257 84.1113H52.4033V92.1337H60.4257V84.1113Z" fill="#78869E"/>
<path d="M36.3574 92.1328H28.335V100.155H36.3574V92.1328Z" fill="#78869E"/>
<path d="M44.3808 92.1328H36.3584V100.155H44.3808V92.1328Z" fill="#78869E"/>
<path d="M52.4023 92.1328H44.3799V100.155H52.4023V92.1328Z" fill="#78869E"/>
<path d="M60.4257 92.1328H52.4033V100.155H60.4257V92.1328Z" fill="#78869E"/>
<path d="M36.3574 100.156H28.335V108.179H36.3574V100.156Z" fill="#78869E"/>
<path d="M44.3808 100.156H36.3584V108.179H44.3808V100.156Z" fill="#78869E"/>
<path d="M52.4023 100.156H44.3799V108.179H52.4023V100.156Z" fill="#78869E"/>
<path d="M60.4257 100.156H52.4033V108.179H60.4257V100.156Z" fill="#78869E"/>
<path d="M36.3574 116.201H28.335V124.224H36.3574V116.201Z" fill="#78869E"/>
<path d="M36.3574 124.223H28.335V132.245H36.3574V124.223Z" fill="#78869E"/>
<path d="M181.494 86.5645H173.472V94.5869H181.494V86.5645Z" fill="#BCEDA0"/>
<path d="M20.3125 76.0879H12.29V84.1103H20.3125V76.0879Z" fill="#5C6E94"/>
<path d="M28.3359 76.0879H20.3135V84.1103H28.3359V76.0879Z" fill="#3C4862"/>
<path d="M20.3125 84.1113H12.29V92.1337H20.3125V84.1113Z" fill="#5C6E94"/>
<path d="M28.3359 84.1113H20.3135V92.1337H28.3359V84.1113Z" fill="#3C4862"/>
<path d="M20.3125 92.1328H12.29V100.155H20.3125V92.1328Z" fill="#5C6E94"/>
<path d="M28.3359 92.1328H20.3135V100.155H28.3359V92.1328Z" fill="#3C4862"/>
<path d="M20.3125 100.154H12.29V108.177H20.3125V100.154Z" fill="#5C6E94"/>
<path d="M28.3359 100.154H20.3135V108.177H28.3359V100.154Z" fill="#3C4862"/>
<path d="M28.3359 108.178H20.3135V116.2H28.3359V108.178Z" fill="#3C4862"/>
<path d="M44.3808 108.178H36.3584V116.2H44.3808V108.178Z" fill="#3C4862"/>
<path d="M52.4023 108.223H44.3799V116.245H52.4023V108.223Z" fill="#3C4862"/>
<path d="M60.4257 108.178H52.4033V116.2H60.4257V108.178Z" fill="#4D5F7D"/>
<path d="M44.3808 116.201H36.3584V124.224H44.3808V116.201Z" fill="#3C4862"/>
<path d="M52.4023 116.201H44.3799V124.224H52.4023V116.201Z" fill="#3C4862"/>
<path d="M60.4257 116.201H52.4033V124.224H60.4257V116.201Z" fill="#4D5F7D"/>
<path d="M44.3808 124.221H36.3584V132.243H44.3808V124.221Z" fill="#3C4862"/>
<path d="M52.2167 124.408H40.6553V151H52.2167V124.408Z" fill="#3C4862"/>
<path d="M92.5146 84.1113H84.4922V92.1337H92.5146V84.1113Z" fill="#962420"/>
<path d="M100.536 84.1113H92.5137V92.1337H100.536V84.1113Z" fill="#962420"/>
<path d="M108.56 84.1113H100.537V92.1337H108.56V84.1113Z" fill="#962420"/>
<path d="M116.581 84.1113H108.559V92.1337H116.581V84.1113Z" fill="#962420"/>
<path d="M124.604 84.1113H116.582V92.1337H124.604V84.1113Z" fill="#962420"/>
<path d="M92.5146 92.1328H84.4922V100.155H92.5146V92.1328Z" fill="#962420"/>
<path d="M100.536 92.1328H92.5137V100.155H100.536V92.1328Z" fill="#962420"/>
<path d="M108.56 92.1328H100.537V100.155H108.56V92.1328Z" fill="#962420"/>
<path d="M116.581 92.1328H108.559V100.155H116.581V92.1328Z" fill="#962420"/>
<path d="M124.604 92.1328H116.582V100.155H124.604V92.1328Z" fill="#962420"/>
<path d="M42.9674 108.223H27.9375V151H42.9674V108.223Z" fill="#78869E"/>
</svg>
